<svg width="25" height="25" viewBox="0 0 25 25" fill="none" xmlns="http://www.w3.org/2000/svg">
<path d="M12.5 0.71875C6.00389 0.71875 0.71875 6.00389 0.71875 12.5C0.71875 18.9961 6.00389 24.2812 12.5 24.2812C18.9961 24.2812 24.2812 18.9961 24.2812 12.5C24.2812 6.00389 18.9961 0.71875 12.5 0.71875ZM16.7656 15.4844C16.8533 15.5677 16.9234 15.6677 16.9719 15.7786C17.0203 15.8894 17.046 16.0089 17.0476 16.1298C17.0491 16.2508 17.0264 16.3708 16.9809 16.4828C16.9353 16.5949 16.8678 16.6967 16.7822 16.7822C16.6967 16.8678 16.5949 16.9353 16.4828 16.9809C16.3708 17.0264 16.2508 17.0491 16.1298 17.0476C16.0089 17.046 15.8894 17.0203 15.7786 16.9719C15.6677 16.9234 15.5677 16.8533 15.4844 16.7656L12.5 13.7818L9.5156 16.7656C9.34427 16.9284 9.11612 17.0178 8.8798 17.0148C8.64349 17.0117 8.4177 16.9165 8.25059 16.7494C8.08348 16.5823 7.98826 16.3565 7.98523 16.1202C7.9822 15.8839 8.07161 15.6557 8.23439 15.4844L11.2182 12.5L8.23439 9.5156C8.07161 9.34427 7.9822 9.11612 7.98523 8.8798C7.98826 8.64349 8.08348 8.4177 8.25059 8.25059C8.4177 8.08348 8.64349 7.98826 8.8798 7.98523C9.11612 7.9822 9.34427 8.07161 9.5156 8.23439L12.5 11.2182L15.4844 8.23439C15.6557 8.07161 15.8839 7.9822 16.1202 7.98523C16.3565 7.98826 16.5823 8.08348 16.7494 8.25059C16.9165 8.4177 17.0117 8.64349 17.0148 8.8798C17.0178 9.11612 16.9284 9.34427 16.7656 9.5156L13.7818 12.5L16.7656 15.4844Z" fill="#9DCAE2"/>
</svg>
